<?xml version="1.0" ?><svg id="Layer_1" style="enable-background:new 0 0 96 96;" version="1.1" viewBox="0 0 96 96" xml:space="preserve" xmlns="http://www.w3.org/2000/svg" xmlns:xlink="http://www.w3.org/1999/xlink"><style type="text/css">
	.st0{fill-rule:evenodd;clip-rule:evenodd;fill:#5C6061;}
	.st1{fill-rule:evenodd;clip-rule:evenodd;fill:#56ADD9;}
	.st2{fill-rule:evenodd;clip-rule:evenodd;fill:#2B2D2D;}
	.st3{fill-rule:evenodd;clip-rule:evenodd;fill:#00A651;}
	.st4{fill-rule:evenodd;clip-rule:evenodd;fill:#EBC32E;}
</style><g><g><path class="st0" d="M96.1,23.4v48c0,2.2-1.8,4-4,4h-88c-2.2,0-4-1.8-4-4v-48c0-2.2,1.8-4,4-4h88C94.3,19.4,96.1,21.2,96.1,23.4    L96.1,23.4z M84.1,23.4h-72v48h72V23.4z"/><rect class="st1" height="48" width="72" x="12.1" y="23.4"/><path class="st2" d="M92.1,41.4v12c0,1.1-0.9,2-2,2h0c-1.1,0-2-0.9-2-2v-12c0-1.1,0.9-2,2-2h0C91.2,39.4,92.1,40.3,92.1,41.4z"/><circle class="st2" cx="90.1" cy="31.4" r="2"/><path class="st2" d="M8.1,43.4v8c0,1.1-0.9,2-2,2h0c-1.1,0-2-0.9-2-2v-8c0-1.1,0.9-2,2-2h0C7.2,41.4,8.1,42.3,8.1,43.4z"/></g><polygon class="st3" points="12.1,65.4 36.1,45.4 50.1,59.4 70.1,35.4 84.1,51.4 84.1,71.4 12.1,71.4  "/><path class="st4" d="M21.9,41.4c4.3,0,7.8-3.5,7.8-7.8s-3.5-7.8-7.8-7.8s-7.8,3.5-7.8,7.8S17.6,41.4,21.9,41.4z"/></g></svg>